<svg width="64" height="64" viewBox="0 0 64 64" fill="none" xmlns="http://www.w3.org/2000/svg">
  <rect x="4" y="4" width="56" height="56" rx="16" fill="#1B2028"/>
  <rect x="7" y="7" width="50" height="50" rx="13" fill="url(#favicon_bg)"/>
  <path d="M21 18C21 16.8954 21.8954 16 23 16H36.25C36.7804 16 37.2891 16.2107 37.6642 16.5858L43.9142 22.8358C44.2893 23.2109 44.5 23.7196 44.5 24.25V42C44.5 43.1046 43.6046 44 42.5 44H23C21.8954 44 21 43.1046 21 42V18Z" fill="#FFF8F1"/>
  <path d="M37 16V22C37 23.1046 37.8954 24 39 24H45" fill="#F2D4C1"/>
  <path d="M26 28H39" stroke="#1F2A44" stroke-width="3" stroke-linecap="round"/>
  <path d="M26 34H33" stroke="#1F2A44" stroke-width="3" stroke-linecap="round"/>
  <circle cx="38.5" cy="36" r="4.5" fill="#B25C2C"/>
  <path d="M39 36H48" stroke="#2EB39B" stroke-width="3" stroke-linecap="round"/>
  <circle cx="50" cy="36" r="5" fill="#2EB39B"/>
  <circle cx="50" cy="36" r="2" fill="#1B2028"/>
  <defs>
    <linearGradient id="favicon_bg" x1="11" y1="8" x2="56" y2="57" gradientUnits="userSpaceOnUse">
      <stop stop-color="#D57E48"/>
      <stop offset="1" stop-color="#B25C2C"/>
    </linearGradient>
  </defs>
</svg>
