<svg width="128" height="128" viewBox="0 0 128 128" fill="none" xmlns="http://www.w3.org/2000/svg">
  <rect x="8" y="8" width="112" height="112" rx="28" fill="#1B2028"/>
  <rect x="14" y="14" width="100" height="100" rx="22" fill="url(#chronicle_bg)"/>
  <path d="M42 34C42 31.7909 43.7909 30 46 30H72.5C73.5609 30 74.5783 30.4214 75.3284 31.1716L87.8284 43.6716C88.5786 44.4217 89 45.4391 89 46.5V82C89 84.2091 87.2091 86 85 86H46C43.7909 86 42 84.2091 42 82V34Z" fill="#FFF8F1"/>
  <path d="M74 30V42C74 44.2091 75.7909 46 78 46H90" fill="#F2D4C1"/>
  <path d="M52 53H78" stroke="#1F2A44" stroke-width="5" stroke-linecap="round"/>
  <path d="M52 65H68" stroke="#1F2A44" stroke-width="5" stroke-linecap="round"/>
  <path d="M77 62C80.866 62 84 65.134 84 69C84 72.866 80.866 76 77 76C73.134 76 70 72.866 70 69C70 65.134 73.134 62 77 62Z" fill="#B25C2C"/>
  <path d="M78 69H92" stroke="#2EB39B" stroke-width="5" stroke-linecap="round"/>
  <circle cx="96" cy="69" r="8" fill="#2EB39B"/>
  <circle cx="96" cy="69" r="3" fill="#1B2028"/>
  <path d="M52 77H63" stroke="#1F2A44" stroke-width="5" stroke-linecap="round"/>
  <defs>
    <linearGradient id="chronicle_bg" x1="22" y1="16" x2="112" y2="114" gradientUnits="userSpaceOnUse">
      <stop stop-color="#D57E48"/>
      <stop offset="1" stop-color="#B25C2C"/>
    </linearGradient>
  </defs>
</svg>
